<svg xmlns="http://www.w3.org/2000/svg" viewBox="0 0 772 150.18"><defs><style>.cls-1{fill:#fff;}</style></defs><title>logo</title><g id="Capa_2" data-name="Capa 2"><g id="Capa_1-2" data-name="Capa 1"><path class="cls-1" d="M241.9,33.54a41.68,41.68,0,0,0-12.38-7.9,36.64,36.64,0,0,0-13.58-2.51q-14.85,0-23.67,8.88t-8.82,23.86q0,14.66,8.19,23.26T214,87.74a39.71,39.71,0,0,0,27.8-10.79l-.13,20.37a52.51,52.51,0,0,1-13.3,5.58,56.94,56.94,0,0,1-14.63,1.84q-22.21,0-36.46-13.8T163,55.88q0-21.2,14.28-35T214.1,7.14a66.26,66.26,0,0,1,14.6,1.59,64.87,64.87,0,0,1,13.9,4.89Z"/><path class="cls-1" d="M327.57,102.27H304.66L280.23,58.86v43.41H260.36V9.36H288.8q16.94,0,25.38,6.57t8.44,19.77a24.43,24.43,0,0,1-5.77,16.37A22.55,22.55,0,0,1,301.93,60ZM280.23,49h3q12.06,0,15.93-2.63T303,37.16q0-6.85-4.16-9.74t-15.64-2.89h-3Z"/><path class="cls-1" d="M339.5,102.27V9.36h19.86v92.91Z"/><path class="cls-1" d="M374.6,90.47l11-12.5a16.94,16.94,0,0,0,6.73,8.09,19,19,0,0,0,10.41,3q7,0,11-3.3a10.85,10.85,0,0,0,4.06-8.88q0-6.6-13.52-13.14-4.38-2.09-6.92-3.43-12.18-6.35-16.88-12.41a22.87,22.87,0,0,1-4.7-14.44A23.26,23.26,0,0,1,385,14.53q9.11-7.39,23.64-7.39a33.26,33.26,0,0,1,14.57,3A29.64,29.64,0,0,1,434,19.32L422.26,30.56a14.37,14.37,0,0,0-5.55-6.06,16.42,16.42,0,0,0-8.34-2,14.59,14.59,0,0,0-9.52,3,9.41,9.41,0,0,0-3.62,7.65q0,7.36,14.34,13.45,2.86,1.21,4.38,1.9,11.8,5.39,17.48,12.18a23.47,23.47,0,0,1,5.68,15.49q0,13.07-8.92,20.85t-24,7.77q-10.66,0-18.28-3.68A24.71,24.71,0,0,1,374.6,90.47Z"/><path class="cls-1" d="M488.07,26.24v76H468.14v-76H445.42V9.36h65.37V26.24Z"/><path class="cls-1" d="M523.8,102.27V9.36h54.7V26.12H543.66v19.1H578.5V62.1H543.66V85.39H578.5v16.88Z"/><path class="cls-1" d="M589.93,102.27,604.08,9.36h20.82l17.9,54.7a45.36,45.36,0,0,1,1.24,5q.67,3.3,1.24,7.55.51-4.32,1.14-7.71a34.9,34.9,0,0,1,1.21-5L665.83,9.36h20.5l14.22,92.91H681.69l-6.79-56q-.76-6.22-1-9.39t-.25-5.9q0-1.46,0-2.19c0-.49.05-.92.1-1.3q-1,5.46-1.81,9.42a56.3,56.3,0,0,1-1.55,6l-19.67,59.4H639.55L620.2,42.87q-.25-.82-1.11-4.57t-2.38-10.92v2.73A134.92,134.92,0,0,1,615.56,46l-.06.25-6.73,56Z"/><path class="cls-1" d="M713.42,102.27V9.36h22.85q18.28,0,27,7T772,37.92q0,13.52-8.79,21.2t-24.34,7.68h-5.46v35.48Zm20-51h2.86q8.12,0,11.8-3.36t3.68-10.79q0-6.85-3.68-10T736.27,24h-2.86Z"/><path class="cls-1" d="M179.49,150.18l-9.69-23.82h3l6.73,17.54,6.7-17.54h2.94Z"/><path class="cls-1" d="M196.45,149.28V126.35h2.73v22.93Z"/><path class="cls-1" d="M209.6,149.28V126.35H214a32.71,32.71,0,0,1,6.88.49,9.31,9.31,0,0,1,3.5,1.65,9.6,9.6,0,0,1,3,3.88,15.09,15.09,0,0,1,0,10.88,9.49,9.49,0,0,1-3,3.88,9.35,9.35,0,0,1-3.42,1.65,26.18,26.18,0,0,1-6,.49H209.6Zm2.76-2.57h1.74a31,31,0,0,0,5.86-.37,6.39,6.39,0,0,0,2.71-1.26,7.42,7.42,0,0,0,2.15-3,12.67,12.67,0,0,0,0-8.49,7.45,7.45,0,0,0-2.15-3,6.45,6.45,0,0,0-2.75-1.29,29.83,29.83,0,0,0-5.82-.38h-1.74Z"/><path class="cls-1" d="M237.73,149.28V126.35h5.39a15.83,15.83,0,0,1,3.38.26,5,5,0,0,1,1.89.89,5.23,5.23,0,0,1,1.58,2.14,7.58,7.58,0,0,1,.56,3,5.57,5.57,0,0,1-1.57,4.28,6.54,6.54,0,0,1-4.61,1.46h-.49l8.75,10.93h-3.46l-8.36-10.93h-.39v10.93Zm2.66-20.63v7.67h2.08q3.19,0,4.28-.82a3.4,3.4,0,0,0,1.08-2.87,3.75,3.75,0,0,0-1.11-3.09q-1.11-.89-4.24-.89Z"/><path class="cls-1" d="M259.81,149.28V126.35h2.73v22.93Z"/><path class="cls-1" d="M296.41,137.87a11.91,11.91,0,0,1-.91,4.64,11.56,11.56,0,0,1-2.65,3.87,12.45,12.45,0,0,1-17.36,0,11.67,11.67,0,0,1-3.59-8.5,11.87,11.87,0,0,1,.92-4.64,11.71,11.71,0,0,1,2.67-3.89,12.17,12.17,0,0,1,4-2.58,12.6,12.6,0,0,1,9.4,0,12.16,12.16,0,0,1,4,2.58,11.54,11.54,0,0,1,2.65,3.88A12,12,0,0,1,296.41,137.87Zm-12.26,9.46a9.17,9.17,0,0,0,3.58-.71,9.5,9.5,0,0,0,3.06-2.08,9.29,9.29,0,0,0,2.76-6.67,9.56,9.56,0,0,0-.71-3.66,9.34,9.34,0,0,0-8.69-5.83,9.4,9.4,0,0,0-3.62.7,9,9,0,0,0-3,2.05,9.55,9.55,0,0,0,3.06,15.49A9.18,9.18,0,0,0,284.16,147.33Z"/><path class="cls-1" d="M314.08,136.55a7.78,7.78,0,0,1,3.38,2.54,6.25,6.25,0,0,1,1.14,3.74,6.75,6.75,0,0,1-2,5.1,8.24,8.24,0,0,1-9.87.55,6.84,6.84,0,0,1-2.47-3.94l2.47-1.22a6.16,6.16,0,0,0,1.65,3.16,4.07,4.07,0,0,0,2.89,1.07,4.67,4.67,0,0,0,3.32-1.18,4,4,0,0,0,1.27-3.08,4.22,4.22,0,0,0-.89-2.67,6.73,6.73,0,0,0-2.67-1.92l-2.79-1.19a7.92,7.92,0,0,1-3.41-2.46,5.86,5.86,0,0,1-1.12-3.6,5.15,5.15,0,0,1,1.82-4,6.76,6.76,0,0,1,4.64-1.6,7,7,0,0,1,3.58.88,6,6,0,0,1,2.36,2.58l-2.26,1.44a5.89,5.89,0,0,0-1.72-2,3.76,3.76,0,0,0-2.16-.65,3.48,3.48,0,0,0-2.51.94,3.39,3.39,0,0,0-.23,4.51,6.28,6.28,0,0,0,2.33,1.58Z"/><path class="cls-1" d="M341.44,149.28V126.35h2.72v20.33h8.66v2.6Z"/><path class="cls-1" d="M368.19,125.45l10.43,23.84h-3l-3-7h-9l-3,7h-3Zm0,6-3.65,8.44h7.3Z"/><path class="cls-1" d="M396.55,150.18l-7.13-16.48-2.88,15.58h-2.66l4.65-23.84,8,19,8-19,4.65,23.84h-2.66l-2.91-15.58Z"/><path class="cls-1" d="M417.65,149.28V126.35h2.73v22.93Z"/><path class="cls-1" d="M430.79,149.28V125.45l16.77,18.32V126.35h2.6v23.82l-16.77-18.12v17.23Z"/><path class="cls-1" d="M467.78,125.45l10.43,23.84h-3l-3-7h-9l-3,7h-3Zm0,6-3.65,8.44h7.3Z"/><path class="cls-1" d="M485.45,149.28V126.35h4.4a32.71,32.71,0,0,1,6.88.49,9.31,9.31,0,0,1,3.5,1.65,9.6,9.6,0,0,1,3,3.88,15.09,15.09,0,0,1,0,10.88,9.49,9.49,0,0,1-3,3.88,9.35,9.35,0,0,1-3.42,1.65,26.18,26.18,0,0,1-6,.49h-5.39Zm2.76-2.57h1.74a31,31,0,0,0,5.86-.37,6.4,6.4,0,0,0,2.71-1.26,7.42,7.42,0,0,0,2.15-3,12.66,12.66,0,0,0,0-8.49,7.45,7.45,0,0,0-2.15-3,6.45,6.45,0,0,0-2.75-1.29,29.82,29.82,0,0,0-5.82-.38H488.2Z"/><path class="cls-1" d="M537,137.87a11.91,11.91,0,0,1-.91,4.64,11.58,11.58,0,0,1-2.65,3.87,12.45,12.45,0,0,1-17.36,0,11.66,11.66,0,0,1-3.59-8.5,11.88,11.88,0,0,1,.92-4.64,11.7,11.7,0,0,1,2.67-3.89,12.18,12.18,0,0,1,4-2.58,12.6,12.6,0,0,1,9.39,0,12.15,12.15,0,0,1,4,2.58,11.56,11.56,0,0,1,2.65,3.88A12,12,0,0,1,537,137.87Zm-12.26,9.46a9.18,9.18,0,0,0,3.58-.71,9.51,9.51,0,0,0,3.06-2.08,9.28,9.28,0,0,0,2.76-6.67,9.56,9.56,0,0,0-.71-3.66,9.34,9.34,0,0,0-8.69-5.83,9.4,9.4,0,0,0-3.62.7,9,9,0,0,0-3,2.05,9.43,9.43,0,0,0-2.76,6.73,9.35,9.35,0,0,0,.7,3.6,9.74,9.74,0,0,0,5.13,5.15A9.19,9.19,0,0,0,524.79,147.33Z"/><path class="cls-1" d="M554.71,136.55a7.78,7.78,0,0,1,3.38,2.54,6.25,6.25,0,0,1,1.14,3.74,6.75,6.75,0,0,1-2,5.1,8.24,8.24,0,0,1-9.87.55,6.84,6.84,0,0,1-2.47-3.94l2.47-1.22a6.17,6.17,0,0,0,1.65,3.16,4.07,4.07,0,0,0,2.89,1.07,4.67,4.67,0,0,0,3.32-1.18,4,4,0,0,0,1.27-3.08,4.22,4.22,0,0,0-.89-2.67,6.72,6.72,0,0,0-2.67-1.92l-2.79-1.19a7.93,7.93,0,0,1-3.41-2.46,5.86,5.86,0,0,1-1.12-3.6,5.15,5.15,0,0,1,1.82-4,6.76,6.76,0,0,1,4.64-1.6,7,7,0,0,1,3.58.88,6,6,0,0,1,2.36,2.58l-2.25,1.44a5.91,5.91,0,0,0-1.72-2,3.76,3.76,0,0,0-2.16-.65,3.48,3.48,0,0,0-2.51.94,3.39,3.39,0,0,0-.23,4.51,6.27,6.27,0,0,0,2.33,1.58Z"/><path class="cls-1" d="M587.11,149.28V138.79l-7.77-12.44h3.15l6,9.95,6-9.95h3.13l-7.75,12.44v10.49Z"/><path class="cls-1" d="M638.23,131.84a11.08,11.08,0,0,0-3.51-2.64,9.78,9.78,0,0,0-4.12-.85,9.23,9.23,0,0,0-6.55,2.79,9.16,9.16,0,0,0-2,3,10.14,10.14,0,0,0-.66,3.72,10.51,10.51,0,0,0,.39,2.94,8.43,8.43,0,0,0,1.17,2.47,9.54,9.54,0,0,0,3.39,3,9.52,9.52,0,0,0,8.42.15,10.67,10.67,0,0,0,3.43-2.71v3.62a13.07,13.07,0,0,1-7.74,2.51,11.76,11.76,0,0,1-3.54-.54,12,12,0,0,1-3.23-1.57,11.65,11.65,0,0,1-5.15-9.85,12.64,12.64,0,0,1,.89-4.82,11.58,11.58,0,0,1,2.7-3.94,11.78,11.78,0,0,1,3.88-2.53,12.59,12.59,0,0,1,4.65-.84,12.45,12.45,0,0,1,3.85.6,13.93,13.93,0,0,1,3.68,1.87Z"/><path class="cls-1" d="M647.66,126.35h2.76v14.27q0,3.48,1.48,5.11a7.43,7.43,0,0,0,9.29,0q1.48-1.63,1.48-5.11V126.35h2.77v14.27q0,4.65-2.22,7t-6.68,2.31q-4.45,0-6.66-2.31t-2.22-7Z"/><path class="cls-1" d="M675.73,149.28V126.35h5.39a15.83,15.83,0,0,1,3.38.26,5,5,0,0,1,1.89.89,5.23,5.23,0,0,1,1.58,2.14,7.58,7.58,0,0,1,.56,3,5.56,5.56,0,0,1-1.57,4.28,6.54,6.54,0,0,1-4.61,1.46h-.49l8.76,10.93h-3.46l-8.36-10.93h-.39v10.93Zm2.66-20.63v7.67h2.08q3.2,0,4.28-.82a3.4,3.4,0,0,0,1.08-2.87,3.75,3.75,0,0,0-1.11-3.09q-1.11-.89-4.24-.89Z"/><path class="cls-1" d="M704.32,150.18l-9.69-23.82h3l6.73,17.54,6.7-17.54H714Z"/><path class="cls-1" d="M744.15,137.87a11.91,11.91,0,0,1-.91,4.64,11.58,11.58,0,0,1-2.65,3.87,12.45,12.45,0,0,1-17.36,0,11.66,11.66,0,0,1-3.59-8.5,11.88,11.88,0,0,1,.92-4.64,11.7,11.7,0,0,1,2.67-3.89,12.18,12.18,0,0,1,4-2.58,12.6,12.6,0,0,1,9.39,0,12.15,12.15,0,0,1,4,2.58,11.56,11.56,0,0,1,2.65,3.88A12,12,0,0,1,744.15,137.87Zm-12.26,9.46a9.18,9.18,0,0,0,3.58-.71,9.51,9.51,0,0,0,3.06-2.08,9.28,9.28,0,0,0,2.76-6.67,9.56,9.56,0,0,0-.71-3.66,9.34,9.34,0,0,0-8.69-5.83,9.4,9.4,0,0,0-3.62.7,9,9,0,0,0-3,2.05,9.43,9.43,0,0,0-2.76,6.73,9.35,9.35,0,0,0,.7,3.6,9.74,9.74,0,0,0,5.13,5.15A9.19,9.19,0,0,0,731.89,147.33Z"/><path class="cls-1" d="M761.82,136.55a7.78,7.78,0,0,1,3.38,2.54,6.25,6.25,0,0,1,1.14,3.74,6.75,6.75,0,0,1-2,5.1,8.24,8.24,0,0,1-9.87.55,6.84,6.84,0,0,1-2.47-3.94l2.47-1.22a6.17,6.17,0,0,0,1.65,3.16,4.07,4.07,0,0,0,2.89,1.07,4.67,4.67,0,0,0,3.32-1.18,4,4,0,0,0,1.27-3.08,4.22,4.22,0,0,0-.89-2.67A6.72,6.72,0,0,0,760,138.7l-2.79-1.19a7.93,7.93,0,0,1-3.41-2.46,5.86,5.86,0,0,1-1.12-3.6,5.15,5.15,0,0,1,1.82-4,6.76,6.76,0,0,1,4.64-1.6,7,7,0,0,1,3.58.88,6,6,0,0,1,2.36,2.58l-2.25,1.44a5.91,5.91,0,0,0-1.72-2,3.76,3.76,0,0,0-2.16-.65,3.48,3.48,0,0,0-2.51.94,3.39,3.39,0,0,0-.23,4.51,6.27,6.27,0,0,0,2.33,1.58Z"/><path class="cls-1" d="M16.47,72.71C1.21,28.52,31.74-5.22,77.53,11.65,103,21,130.63,43.9,149.44,61.57V0H0V149.44H63.57C51.37,135.17,27.52,104.69,16.47,72.71Z"/><polygon class="cls-1" points="86.37 93.6 81.95 104.44 121.34 149.44 136.51 149.44 86.37 93.6"/><polygon class="cls-1" points="105.65 79.94 149.44 131.28 149.44 85.91 105.65 79.94"/><path class="cls-1" d="M92.13,51.42l1.49,18.19H92.13q-2.25-6.8-5.82-10.24c-3.43-3.32-9.18-8.75-18.84-9a18.43,18.43,0,0,0-16.75,8.71,31.3,31.3,0,0,0-4.8,17.51,35,35,0,0,0,3.19,15,22.38,22.38,0,0,0,8.35,10,20,20,0,0,0,10.6,3.17,23.41,23.41,0,0,0,6.16-.81A24.55,24.55,0,0,0,80,101.59V88.15c0-2.89-.22-3.17-.66-4.07a4.45,4.45,0,0,0-2-2,11.8,11.8,0,0,0-4.87-.7V79.72H94.71v1.62H93.65q-3.32,0-4.55,2.21c-.57,1-.85,1.51-.85,4.6v14.43a43.17,43.17,0,0,1-9.65,3.87A42.24,42.24,0,0,1,68,107.67q-16.7,0-25.37-10.71a28.61,28.61,0,0,1-6.5-18.53A32.48,32.48,0,0,1,51.7,51.1a29.15,29.15,0,0,1,15-3.7,25.76,25.76,0,0,1,5.72.51A42.64,42.64,0,0,1,85.16,53c1.54.92,2.41,1.61,3.32,2,.48.24,1-.25,1.38-.74a5.68,5.68,0,0,0,.7-2.91Z"/><path class="cls-1" d="M78.11,80.72v1.92H44.67V80.72h2.5q4.37,0,6.35-2.55,1.25-1.66,1.25-8V36.59q0-5.36-.68-7.07A4.69,4.69,0,0,0,52,27.28,9.86,9.86,0,0,0,47.17,26h-2.5V24.1H78.11V26H75.56q-4.32,0-6.29,2.55-1.3,1.67-1.3,8V70.16q0,5.36.68,7.07a4.65,4.65,0,0,0,2.18,2.24,9.57,9.57,0,0,0,4.73,1.25Z"/><path class="cls-1" d="M147,2.41V147H2.41V2.41H147M149.44,0H0V149.44H149.44V0Z"/></g></g></svg>